<svg xmlns="http://www.w3.org/2000/svg" xmlns:xlink="http://www.w3.org/1999/xlink" width="109.634" height="37.164" viewBox="0 0 109.634 37.164"><defs><style>.a{fill:#6d4709;}.b{fill:#4a7006;}.c{fill:url(#a);}.d{fill:#d3524f;}.e{fill:url(#b);}.f{fill:#b23b3b;font-size:28px;font-family:Signika-Semibold, Signika;font-weight:600;}</style><radialGradient id="a" cx="0.591" cy="0.057" r="0.865" gradientTransform="translate(-0.254) scale(1.508 1)" gradientUnits="objectBoundingBox"><stop offset="0" stop-color="#ffce87"/><stop offset="1" stop-color="#f96c7d"/></radialGradient><radialGradient id="b" cx="0.589" cy="0.092" r="0.872" gradientTransform="translate(-0.11) scale(1.22 1)" xlink:href="#a"/></defs><g transform="translate(0.007 -0.004)"><g transform="translate(-0.007 0.004)"><path class="a" d="M18.9,7.073c-1.421-4.538.565-6.715.565-6.715s3.532-1.38,2.219,1.3a14.128,14.128,0,0,0-1.446,5.909Z" transform="translate(-3.1 -0.004)"/><path class="b" d="M23.75,6.928s2.784,1.188,4.463-.706A5.128,5.128,0,0,0,29.634,2.39a9.549,9.549,0,0,1-2.327.6,3.432,3.432,0,0,0-2.643,1.571,9.142,9.142,0,0,0-.914,2.369Z" transform="translate(-4.006 -0.407)"/><path class="b" d="M13.372,5.4S11.568.012,7.139.07a8.826,8.826,0,0,0-6.7,3.2s2.842.6,3.723,1.562A6.408,6.408,0,0,0,9.432,6.594a24.1,24.1,0,0,0,3.939-1.2Z" transform="translate(-0.069 -0.015)"/><path class="c" d="M32.811,13.028c-3.889-4.205-10.3-2.344-11.253-2.061a40.324,40.324,0,0,0-4.438,1.579l.956,25.822c4.255.407,17.453-3.2,17.669-17.245A12.915,12.915,0,0,0,32.811,13.028Z" transform="translate(-2.886 -1.745)"/><path class="d" d="M18.27,38.686s11.112-4.355,9.458-16.306C26.282,11.942,19.616,12,19.616,12Z" transform="translate(-3.081 -2.03)"/><path class="e" d="M22.313,21.328c-1.022-5.194-3.2-7.962-5.693-9.341l.407.075a10.372,10.372,0,0,0-4.937-1.272,16.946,16.946,0,0,0-6.6,1.238c-.881.316-7.338,3.324-4.986,12.807,2.743,11,14.453,13.646,14.453,13.646h.249a10.8,10.8,0,0,0,1.014-.607l-.183-.058C18.49,36.1,24.225,31,22.313,21.328Z" transform="translate(0.007 -1.825)"/><text class="f" transform="translate(38.634 29.164)"><tspan x="0" y="0">Cibeli</tspan></text></g></g></svg>